<svg xmlns="http://www.w3.org/2000/svg" viewBox="0 0 116 123">
  <defs>
    <linearGradient id="blueGrad" x1="26.67" y1="20.6" x2="135.67" y2="114.4" gradientUnits="userSpaceOnUse" gradientTransform="matrix(0.5625,0,0,0.568,-9.4,-5.3)">
      <stop offset="0" stop-color="#5A9FD4"/>
      <stop offset="1" stop-color="#306998"/>
    </linearGradient>
    <linearGradient id="yellowGrad" x1="150.96" y1="192.35" x2="112.03" y2="137.27" gradientUnits="userSpaceOnUse" gradientTransform="matrix(0.5625,0,0,0.568,-9.4,-5.3)">
      <stop offset="0" stop-color="#FFD43B"/>
      <stop offset="1" stop-color="#FFE873"/>
    </linearGradient>
  </defs>
  <!-- Blue snake (top-left) -->
  <path fill="url(#blueGrad)" d="M 60.51,6.4 C 55.93,6.42 51.55,6.81 47.7,7.49 C 36.35,9.5 34.29,13.69 34.29,21.43 L 34.29,31.65 L 61.1,31.65 L 61.1,35.05 L 34.29,35.05 L 24.23,35.05 C 16.44,35.05 9.61,39.74 7.48,48.65 C 5.02,58.86 4.91,65.23 7.48,75.9 C 9.38,83.84 13.94,89.49 21.73,89.49 L 30.95,89.49 L 30.95,77.24 C 30.95,68.39 38.6,60.59 47.7,60.59 L 74.48,60.59 C 81.93,60.59 87.89,54.45 87.89,46.96 L 87.89,21.43 C 87.89,14.16 81.76,8.7 74.48,7.49 C 69.87,6.72 65.09,6.38 60.51,6.4 z M 46.01,14.62 C 48.78,14.62 51.04,16.92 51.04,19.74 C 51.04,22.56 48.78,24.84 46.01,24.84 C 43.23,24.84 40.98,22.56 40.98,19.74 C 40.98,16.92 43.23,14.62 46.01,14.62 z"/>
  <!-- Yellow snake (bottom-right) -->
  <path fill="url(#yellowGrad)" d="M 91.23,35.05 L 91.23,46.96 C 91.23,56.19 83.4,63.96 74.48,63.96 L 47.7,63.96 C 40.36,63.96 34.29,70.24 34.29,77.59 L 34.29,103.12 C 34.29,110.38 40.61,114.66 47.7,116.74 C 56.18,119.24 64.32,119.69 74.48,116.74 C 81.23,114.79 87.89,110.85 87.89,103.12 L 87.89,92.9 L 61.1,92.9 L 61.1,89.49 L 87.89,89.49 L 101.29,89.49 C 109.08,89.49 111.99,84.06 114.7,75.9 C 117.5,67.5 117.38,59.42 114.7,48.65 C 112.77,40.89 109.09,35.05 101.29,35.05 L 91.23,35.05 z M 76.17,99.71 C 78.95,99.71 81.2,101.99 81.2,104.8 C 81.2,107.63 78.95,109.93 76.17,109.93 C 73.4,109.93 71.14,107.63 71.14,104.8 C 71.14,101.99 73.4,99.71 76.17,99.71 z"/>
</svg>
